# xmcd CD database file
#
# Track frame offsets:
#	150
#	12788
#	26008
#	37493
#	52483
#	64988
#	77733
#	89323
#	99223
#	113593
#	123963
#	136033
#	148423
#	161560
#	173058
#	187365
#	198670
#	209733
#	219183
#	232970
#
# Disc length: 3271 seconds
#
# Revision: 2
# Processed by: cddbd v1.4PL0 Copyright (c) Steve Scherf et al.
# Submitted via: CDex 1.50Beta7
#
DISCID=2a0cc514
DTITLE=Various Artist - Giant Of Country
DYEAR=1900
DGENRE=
TTITLE0=JOHNNY CASH: Folsom Prison Blues
TTITLE1=KENNY ROGERS: Ruby, Don't Take Your Love To Town
TTITLE2=FREDDY FENDER: Before The Next Teardrop Falls
TTITLE3=WILLIE NELSON: Face of Fighter
TTITLE4=KENNY ROGERS: Ruben James
TTITLE5=FREDDY FENDER: You'll Lose a Good Thing
TTITLE6=WILLIE NELSON: End of Understanding
TTITLE7=JOHNNY CASH: Ballad of a Teenage Queen
TTITLE8=FREDDY FENDER: Since I Met You Baby
TTITLE9=WILLIE NELSON: Blame It on The Time
TTITLE10=KENNY ROGERS: Elvira
TTITLE11=JOHNNY CASH: I Walk The Line
TTITLE12=FREDDY FENDER: Wasted Days And Wasted Nights
TTITLE13=WILLIE NELSON: Is There Something on Your Mind
TTITLE14=KENNY ROGERS: Sunshine
TTITLE15=JOHNNY CASH: Big River
TTITLE16=FREDDY FENDER: Mathilda
TTITLE17=WILLIE NELSON: Building Heartaches
TTITLE18=KENNY ROGERS: Loser
TTITLE19=JOHNNY CASH: Next In Line
EXTD=
EXTT0=
EXTT1=
EXTT2=
EXTT3=
EXTT4=
EXTT5=
EXTT6=
EXTT7=
EXTT8=
EXTT9=
EXTT10=
EXTT11=
EXTT12=
EXTT13=
EXTT14=
EXTT15=
EXTT16=
EXTT17=
EXTT18=
EXTT19=
PLAYORDER=
